<svg xmlns="http://www.w3.org/2000/svg" width="204" height="217" viewBox="0 0 204 217" fill="none">
<path d="M146.596 75.0032C146.329 69.8609 148.574 66.2184 150.446 60.7547C154.135 50.3094 157.61 40.8282 160.551 30.49C163.225 21.116 164.722 4.29637 174.079 5.26055C185.574 6.439 179.853 26.3655 179.105 33.5968C177.821 46.1848 171.779 57.755 170.924 70.7179C175.362 72.7534 180.013 75.1639 184.826 76.9851C194.182 80.574 198.086 86.8412 198.193 97.233C198.353 111.964 195.412 124.337 184.024 134.836C175.683 142.496 175.896 154.548 173.918 164.94C170.924 180.581 169.427 196.437 171.726 212.399" stroke="#F7ECD8" stroke-width="10.4405" stroke-linecap="round" stroke-linejoin="round" />
<path d="M121.36 212.399C122.857 191.509 125.531 170.672 121.467 149.727C120.451 144.424 118.526 139.443 115.158 135.747C104.464 124.016 106.015 109.875 107.565 96.2688C108.421 88.6089 114.516 83.5202 123.339 84.1094" stroke="#F7ECD8" stroke-width="10.4405" stroke-linecap="round" stroke-linejoin="round" />
<path d="M124.568 107.089C125.53 98.5719 126.012 95.7329 126.065 87.1624C126.172 69.2179 117.938 53.5767 115.639 36.5963C114.356 27.0616 111.789 14.5808 123.392 14.0451C131.893 13.6166 133.871 25.2939 136.17 39.1139C137.4 46.6667 145.046 61.6651 147.452 68.8965" stroke="#F7ECD8" stroke-width="10.4405" stroke-linecap="round" stroke-linejoin="round" />
</svg>