<?xml version="1.0" encoding="UTF-8"?>
<svg id="Layer_1" data-name="Layer 1" xmlns="http://www.w3.org/2000/svg" width="199.84" height="195.78" viewBox="0 0 199.84 195.78">
  <defs>
    <style>
      .cls-1 {
        fill: #fff;
      }
    </style>
  </defs>
  <path class="cls-1" d="M76.71,52.25c-.17.57.31,1.43.36,1.92-.63,1.29-2.95,1.44-3.86,2.26l-2.62,2.35c-.27.39.21,1.5.64,1.6.4.09,1.17-.11,1.66-.17l4.12-.5c-.25-1.02.29-2.1.75-2.14,2.29-.21,2.44-2.43,3.1-5.42.26-.31,1.27-.37,1.63-.44.36-.07.76-1.21.37-1.51-2.37-1.76-6.01,1.51-6.17,2.05Z"/>
  <path class="cls-1" d="M59.3,83.86c-.27-.42-1.03-.48-1.68-.78l-2.72-1.28c-1.52,1.62,1.01,3.38.64,7.69,1.11.24,1.92.22,3.04.1-.24-2.29,2-3.72.71-5.72Z"/>
  <path class="cls-1" d="M62.87,81.94c.54-.24.55-1.05.2-1.41-.32-.33-1.98-.88-3.74-2.97,1.62-.71,2.57-3.09,1.86-4.48-5.27-.37-.63,2.74-4.03,5.83-.41.37-.52,1.62-.12,1.85.46.26,1.31-.03,1.87-.19.79,1.24,2.14,2.18,3.97,1.38Z"/>
  <path class="cls-1" d="M71.31,62.4c-.9-.55-1.72-.22-2.53.44-.48.39-1.93.27-2.2.73-.45.79.25,1.22.63,1.27,1.74.23,3.3-.81,3.46.05l.31,1.63c1.29-.76,1.41-3.45.33-4.11Z"/>
  <path class="cls-1" d="M67.83,69.99c-.79.25-1.12,2.19-.36,2.79.58.46,2.64.39,2.98-.27l1.37-2.65c-1.45-.12-2.65-.3-3.99.13Z"/>
  <path class="cls-1" d="M110.82,29.22c-.62.81-.02,1.82.45,2.17.45.34,1.88.8,2.25.26.51-.74.28-2.03.12-2.85-.83-.2-2.33-.22-2.82.42Z"/>
  <path class="cls-1" d="M106.06,31.65c-.49.35-.5,1.28-.34,1.67.37.94,4.75.22,3.8-1.39-.63-1.07-2.78-.75-3.45-.28Z"/>
  <path class="cls-1" d="M196.45,1.72c-.28.12-.8.18-1.02.03-.9-.56-1.82.09-2.71.13-.14-.38-.75-.71-1.14-.89.03-.32-.03-.69-.33-.9-.26-.19-.72.02-.68.44l-4.45-.02c.05-.32-.92-.66-1.2-.45-1.28.98-2.65,0-3.65.14-2.26.32-3.66.71-5.93.3l-3.66.28c-3.02-.67-5.79-.48-8.65.79l-4.21-.14-3.09.02c-1.17,0-2.9-.04-3.24,1.27-.11.43-.43.74-.75.93-.73-.38-1.5-1-2.26-.56-.23.13-.69.09-.95.07-.48-.51-1.24-.51-1.74-.02-.33.02-1.11.15-1.38-.05-.84-.65-1.84.63-2.5.62-2.65-.29-4.08.41-6.27,1.5-.82.41-2.38.29-2.38,1.56-.38.14-.91.35-1.25.43l-.64.15c-.25.06-.4.43-.36.76-.62-.05-1.6-.15-2.14.03-.66-.47-1.39-1.56-2.35-1.7-1.02-.14-1.97,1.14-2.63,1.69-.34-.22-.9-.03-1.24-.02l-2.22.07c-.16.57-.09.95-.08,1.33.01.34-.12.94.05,1.26-.88.17-1.78.42-2.63,1.36-3.92-1.2-4.97,1.82-7.94,2.11-.44.04-.83.53-.6,1.08-.35.04-1.04.48-1.37.28-.44-.27-.84-.26-1.29-.04-.6.3-.44,1.16-.08,1.89-2.33-1.05-4.07.93-6.17,2-.53.27-1.89.09-1.76,1.08-.1.16-.44.42-.64.42-.72,0-1.11.51-1.59,1.15-1.13,1.51-3.07,1.68-4.58,2.56l-2.8,1.62c-1.01.58-1.5,1.13-1.78,2.02-.2.63-1.22,1.01-1.24,1.68-.28.01-.66.06-.9.26-.33.26-.45.75-.42,1.17l-.41.39c-2.73,0-6.07,2.67-5.3,5.01-2.58.87-5.23-.24-5.46,2.19l-1.79,1.23c-.44.31-1.27.51-1.38,1.36-.21,1.63-1.5,1.71-2.37,2.55l-7.02,6.79c-.07,1.46-1.01,2.19-1.35,3.22-.28-.02-.61.31-.83.42-1.03,0-1.95,1.21-1.68,2.38-.87-.02-.62.57-.9.89-1.87-.24-2.18,1.64-3.16,2.59-.69.67-1.77,1.91-2.49,2.29-1.48.78-2.08,1.95-3.03,2.84-2.13,1.98-2.95,3.77-4.17,6.44-.5,1.09-3.03,1.88-2.24,3.99-.95-.1-1.26.08-1.64.2-.38.13-.47.64-.43,1.11l.05.56c-.7,0-1.35.5-1.84,1.23l-2.54,3.77c-.35.52.07,1.59.54,2.36-2.88.73-4,4.4-5.38,7.11l-2.1,1.7c-.34,1.27-.27,2.09.27,3.5-.58.09-1.71.43-1.83.87.41,3.75-3.16,3.68-3.67,5.17-.3.85.69,1.85.99,2.52-.43,1.33-1.47,2.74-.5,4h-.44s-2.42.23-2.42.23l-.22,2.86c-.08,1.07-1.65.77-2.4.57-1.12-.31-.58-1.6-.89-2.28-.84-1.85-1.03-3.48-1.07-5.32l-1.49-2.93c-1.66-3.28-2.84-6.47-1.93-10.21.23-.96-.67-1.67-1.03-2.34-.96-1.75-.55-3.6-.72-5.53-2.77-2.95-4.7-1.59-6.65-3.14-2.39,1.91-3.43-.21-4.65,3.35-.29.84.87,2.16,1.07,2.9-.25,3.1-.35,6.44-.07,9.55.25,2.68-1.74,4.62-.54,6.22,1.6,2.13-.23,8.04-.23,9.25l-.03,14.39,1.93,4.26.27,7.3c.99,1.49,1.38,2.2.86,4.07l.34,4.22c-.57,1.63.56,2.57,1,3.78.57,1.56.65,3.12,2.58,3.8.13,1.86.12,3.6.62,5.5l1.79,6.86c-.22.6-1.24,1.82-.38,2.28,2.2,1.17,1.69,2.61,1.63,4.66-.03.99,1.06,2.56.17,3.91,1.38.58,2.01,1.81,2.68,2.85,1.66,2.57,2.77,5.07,2.16,8.43l2.13,1.17c.41,1.84,1.72,4.43,3.63,5.06,1.53-1.75,4.53-1.21,7.02-3.33,1.43-1.22.36-4,.04-5.51.3-1.41,1.37-2.14,1.84-3.17-.19-.36-.75-.95-.64-1.15l.58-1.12c-.38-1.2-.88-2.67-.18-3.98l2.36-.35c.29-1.42-.36-2.57-1.91-3.2.83-.76,1.4-1.16,1.59-1.75.19-.61-.34-1.3-.97-1.89,1.41-1.05,1.73-2.41,1.92-4.07l2.95-2.4c.2-.61-.63-2.06-.13-2.86l1.73-2.76c.55-.87,2.02-1.29,3.13-1.87.4-3.45,3.12-5.53,4.88-8.26.7-1.39-.09-3.37,2.23-4.36,1.46-.62,1.03-4.64,4.01-6.14.26-2.64,1.6-4.81,3.72-6.43.7-1.78,1.81-3.19,3.88-3.28.15-2.16,1.61-3.47,3.68-3.96.92-2.57,3.07-3.99,4.68-5.91,1.45-1.73,2.67-3.73,5.12-3.95.6-.13,1.28-1.43,2.49-1.13.53-2.76,2.47-4.17,4.59-5.62.66-.45.59-2.71.08-3.34-.63-.77-1.87-1.52-3.25-1.35-2.39.3-4.89-.53-7.15.28-1.14.41-1.97,2.03-3.56,1.83-.95-.12-1.81.3-2.43.78-1.54,1.2-.55,3.02-1.27,4.08-.72,1.05-2.67-.08-4.32,1.48-.65.62-1,1.21-.21,2.58l-4.15.18c-1.88.08-2.82,2.35-4.12,3.26-1.31.92-2.81,1.1-3.96,2.44-.31.36-3.26,1.69-4.17,1.05-.39-.28-.55-.86-.49-1.46.14-1.3,2.37-.76,2.68-1.85.09-.31-.57-.96-.76-1.29,1.62-3-.32-5.34,2.11-7.96-1.29-.34-2.16-.4-2.64-.95-.54-.64-.7-2.11.05-2.47l1.2.29c.26.06.58-.36.64-.6.11-.44-.15-1.09-.64-1.34-1.8-.91-.21-4.64,2.63-7.03-.02-.9-.37-2.22.8-2.85.53-.29,1.08-.08,1.46.29.39.37-.09,1.04-.04,1.42l.46,3.39c1.14.63,3.35-1.51,3.33-2.28-.02-.56-.59-1-1.04-1.41-.76-.68-.32-1.31.09-1.79.34-.4,1.18-1.01,1.67-.42.19.34-.13,1.4.62,1.77.79-.49,1.41-.99,1.78-2.15-1.47-.14-2.01-.68-2.65-1.61l-1.69-2.46c-.39-.57-1.49-.6-1.6-1.7-.22-2.25,2.35-2.36,1.55-4.81,2.14-2.58,4.3-5.46,5.73-8.41.11-.23,0-.72,0-.91,1-.18,1.2-1.61,1.79-2.21,1.49-1.51,1.94-2.77,1.14-5l4.2-1.83c1.1-2.8,3.46-4.12,5.51-6.09l2.29-2.95c.9-1.15,1.89-1.36,2.85-2.16,1.86-1.57,3.45-3.45,5.87-4.38.31-.12.58-.8.45-1.03-.15-.29-.8-.35-1.55-.96l4.57-1.19,1.37-1.29c.53-.5,2.11.21,1.84,1l-1.25,3.63c-.27.78-.18,1.15.15,1.71,1.22,2.07,2.14-1.97,5.39-1.66.47-2.99.22-6.77-1.7-6.92-.64-.21.08-1.42.24-1.89.25-.72,1.25-.75,1.88-1.07,1.19-.61,1.82-1.47,3.54-.96.49-.5.75-1.35,1.64-1.6l.52,1.72c.23.77,3.84,2,5.67-.72.59.03.99-.06,1.27-.16.45-.15.41-1.22,0-1.37-.75-.27-1.59-.15-2.6-.17-.55-1.53-.07-3.27,1.28-4.11,2.07-1.29,4.29-1.93,6.64-1.74.16-.57.34-1.36.59-1.58.69-.61,1.85.99,2.89.69,1.25-.36.39-2.45.77-3.25.87-1.85,3.98,1.22,5.02,1.8,1.22.67,1.77-1.05,1.97-1.87.11-.38,1.54-.74.86-1.49-.2-.22-1.08-.17-1.37-.12-.35.06-.66-.96-.2-1.13,2.17-.78,2.67-1.93,3.12-1.3.54.76.01,1.65.62,2.11.33.25,1.24-.07,1.12-.41l-.95-2.72,3.36-.73c2.04-1.05,3.84-2.3,6.23-2.19.64-1.45,1.87-1.98,3.33-1.55.57.22,1.58.68,1.94.35l1.26-1.19,2.17-.3,1.12-1.85,4.56-.43,1.83-1.08c.39-.23,1.3,1.06,1.78,1.05l4.25-.08c1.06-.02,2.83-.57,3.9-1.11l4.74-2.36c.73-.37,1.48-.89,1.53-1.56h2.18c1.28.02,2.7.03,3.66-.97l1.31.15c1.57.18,3.52.15,5.1-.78l1.11.6c4.13-1.19,7.24,1.02,10.97-.6.44.86.95,1.36,2.01,1.45.64.06,1.41.09,1.81-.81l3.15.07c.6.01,1.97-.12,2.1-.72-.01-2.04-1.82-3.68-3.39-3.01Z"/>
</svg>