<svg fill="none" xmlns="http://www.w3.org/2000/svg" viewBox="248.2 171.3 188.8 163.2"><path xmlns="http://www.w3.org/2000/svg" d="M327.434 293.483C327.434 293.483 324.785 308.881 332.478 312.615C332.478 312.615 346.332 316.54 352.872 310C359.412 303.46 357.201 286.849 357.201 286.849C357.201 286.849 336.434 294.858 327.434 293.483Z" fill="#F7ECD8" stroke="#815739" stroke-width="2.26052" stroke-linecap="round" stroke-linejoin="round" />
<path xmlns="http://www.w3.org/2000/svg" d="M332.286 313.786C332.286 313.786 325.655 314.065 324.962 321.159C324.268 328.254 334.324 334.048 342.925 327.7C351.527 321.352 351.259 318.014 350.374 311.744" stroke="#815739" stroke-width="2.26052" stroke-linecap="round" stroke-linejoin="round" />
<path xmlns="http://www.w3.org/2000/svg" d="M333.066 321.382C333.066 321.382 328.499 325.496 329.75 328.107" stroke="#815739" stroke-width="2.26052" stroke-linecap="round" stroke-linejoin="round" />
<path xmlns="http://www.w3.org/2000/svg" d="M336.919 323.153C336.919 323.153 334.161 326.694 335.702 328.924" stroke="#815739" stroke-width="2.26052" stroke-linecap="round" stroke-linejoin="round" />
<path xmlns="http://www.w3.org/2000/svg" d="M329.531 301.907C329.531 301.907 350.373 301.907 356.202 295.955" stroke="#815739" stroke-width="4.52104" stroke-linecap="round" stroke-linejoin="round" />
<path xmlns="http://www.w3.org/2000/svg" d="M372.82 279.86C372.82 279.86 370.3 288.05 371.592 289.407C372.885 290.763 382.503 294.225 389.428 288.261C396.352 282.297 395.78 269.458 395.78 269.458C395.78 269.458 391.296 269.714 384.982 273.022C378.668 276.33 372.824 279.856 372.824 279.856L372.82 279.86Z" fill="#F7ECD8" stroke="#815739" stroke-width="2.26052" stroke-linecap="round" stroke-linejoin="round" />
<path xmlns="http://www.w3.org/2000/svg" d="M371.592 289.407C371.592 289.407 362.686 296.286 367.881 302.853C373.077 309.42 385.581 304.484 386.542 300.317C387.503 296.151 386.542 289.407 386.542 289.407" stroke="#815739" stroke-width="2.26052" stroke-linecap="round" stroke-linejoin="round" />
<path xmlns="http://www.w3.org/2000/svg" d="M372.989 296.953C372.989 296.953 368.423 301.067 369.674 303.678" stroke="#815739" stroke-width="2.26052" stroke-linecap="round" stroke-linejoin="round" />
<path xmlns="http://www.w3.org/2000/svg" d="M376.611 299.967C376.611 299.967 373.853 303.509 375.394 305.739" stroke="#815739" stroke-width="2.26052" stroke-linecap="round" stroke-linejoin="round" />
<path xmlns="http://www.w3.org/2000/svg" d="M372.881 281.337C372.881 281.337 379.9 283.077 392.89 277.49" stroke="#815739" stroke-width="4.52104" stroke-linecap="round" stroke-linejoin="round" />
<path xmlns="http://www.w3.org/2000/svg" d="M279.358 263.844C279.358 263.844 279.811 299.229 290.465 310.192C290.465 310.192 305.889 316.348 312.257 309.039V294.802C312.257 294.802 341.636 293.732 360.383 285.567C379.13 277.403 391.906 266.523 399.618 270.177C407.33 273.832 410.348 286.86 409.813 291.724C409.813 291.724 415.393 299.225 427.513 293.457C427.513 293.457 452.522 214.994 396.156 200.564C395.662 200.436 386.081 199.464 385.573 199.494C378.286 199.916 367.911 199.513 341.519 212.862C311.122 228.237 280.489 244.618 279.358 263.844Z" fill="#F7ECD8" stroke="#815739" stroke-width="2.26052" stroke-linecap="round" stroke-linejoin="round" />
<path xmlns="http://www.w3.org/2000/svg" d="M412.508 293.965C412.508 293.965 403.854 300.298 403.277 305.193C402.701 310.087 406.461 312.49 414.437 311.541C422.413 310.591 428.595 309.386 426.387 293.965" stroke="#815739" stroke-width="2.26052" stroke-linecap="round" stroke-linejoin="round" />
<path xmlns="http://www.w3.org/2000/svg" d="M290.465 310.192C290.465 310.192 282.523 315.783 283.612 321.084C284.701 326.385 302.032 329.527 307.156 322.938C312.279 316.348 307.574 311.744 307.574 311.744" stroke="#815739" stroke-width="2.26052" stroke-linecap="round" stroke-linejoin="round" />
<path xmlns="http://www.w3.org/2000/svg" d="M291.739 318.428C291.739 318.428 287.173 322.542 288.424 325.153" stroke="#815739" stroke-width="2.26052" stroke-linecap="round" stroke-linejoin="round" />
<path xmlns="http://www.w3.org/2000/svg" d="M295.594 320.199C295.594 320.199 292.836 323.74 294.377 325.971" stroke="#815739" stroke-width="2.26052" stroke-linecap="round" stroke-linejoin="round" />
<path xmlns="http://www.w3.org/2000/svg" d="M410.348 303.079C410.348 303.079 405.782 307.193 407.032 309.804" stroke="#815739" stroke-width="2.26052" stroke-linecap="round" stroke-linejoin="round" />
<path xmlns="http://www.w3.org/2000/svg" d="M414.202 304.85C414.202 304.85 411.445 308.391 412.986 310.622" stroke="#815739" stroke-width="2.26052" stroke-linecap="round" stroke-linejoin="round" />
<path xmlns="http://www.w3.org/2000/svg" d="M279.358 268.06C279.358 268.06 353.564 294.994 342.276 212.862" stroke="#815739" stroke-width="4.52104" stroke-linejoin="round" />
<path xmlns="http://www.w3.org/2000/svg" d="M280.255 277.516C280.255 277.516 310.357 291.008 337.86 270.471C363.627 251.234 351.352 217.096 345.158 211.219" stroke="#815739" stroke-width="4.52104" stroke-linejoin="round" />
<path xmlns="http://www.w3.org/2000/svg" d="M282.147 290.096C282.147 290.096 319.947 296.053 346.139 279.219C372.331 262.386 371.129 232.155 354.495 206.822" stroke="#815739" stroke-width="4.52104" stroke-linejoin="round" />
<path xmlns="http://www.w3.org/2000/svg" d="M360.376 205.349C360.376 205.349 376.535 216.218 377.691 234.924C378.848 253.63 372.85 276.363 357.479 284.987" stroke="#815739" stroke-width="4.52104" stroke-linejoin="round" />
<path xmlns="http://www.w3.org/2000/svg" d="M374.927 202.866C374.927 202.866 386.211 212.545 387.887 228.817C389.428 243.755 386.154 259.617 377.828 274.412" stroke="#815739" stroke-width="4.52104" stroke-linecap="round" stroke-linejoin="round" />
<path xmlns="http://www.w3.org/2000/svg" d="M387.894 200.952C387.894 200.952 397.697 214.647 399.238 226.153C400.779 237.659 397.866 253.916 388.255 269.457" stroke="#815739" stroke-width="4.52104" stroke-linecap="round" stroke-linejoin="round" />
<path xmlns="http://www.w3.org/2000/svg" d="M404.43 205.571C404.43 205.571 416.173 234.126 399.66 268.636" stroke="#815739" stroke-width="4.52104" stroke-linecap="round" stroke-linejoin="round" />
<path xmlns="http://www.w3.org/2000/svg" d="M419.899 217.658C419.899 217.658 426.711 248.796 404.038 271.311" stroke="#815739" stroke-width="4.52104" stroke-linecap="round" stroke-linejoin="round" />
<path xmlns="http://www.w3.org/2000/svg" d="M407.7 275.949C407.7 275.949 428.331 261.105 429.247 234.928" stroke="#815739" stroke-width="4.52104" stroke-linecap="round" stroke-linejoin="round" />
<path xmlns="http://www.w3.org/2000/svg" d="M409.538 280.549C409.538 280.549 426.967 272.886 431.171 259.978" stroke="#815739" stroke-width="4.52104" stroke-linecap="round" stroke-linejoin="round" />
<path xmlns="http://www.w3.org/2000/svg" d="M411.166 286.848C411.166 286.848 425.193 284.595 430.256 279.215" stroke="#815739" stroke-width="4.52104" stroke-linecap="round" stroke-linejoin="round" />
<path xmlns="http://www.w3.org/2000/svg" d="M286.386 301.655C286.386 301.655 302.096 306.59 312.257 300.317" stroke="#815739" stroke-width="4.52104" stroke-linecap="round" stroke-linejoin="round" />
<path xmlns="http://www.w3.org/2000/svg" d="M293.676 242.15C293.676 242.15 292.425 252.892 290.232 254.417C288.04 255.943 299.945 255.231 298.705 252.699C297.466 250.168 293.676 242.15 293.676 242.15Z" fill="#815739" />
<path xmlns="http://www.w3.org/2000/svg" d="M283.612 259.402C283.612 259.402 294.877 273.029 307.574 259.202C307.574 259.202 293.487 244.373 283.612 259.402Z" fill="#DDC7B3" stroke="#815739" stroke-width="2.26052" stroke-miterlimit="10" />
<path xmlns="http://www.w3.org/2000/svg" d="M341.328 234.393C345.366 218.811 338.057 217.462 341.135 210.345C344.214 203.228 350.178 185.528 350.37 179.756C350.562 173.984 343.253 174.753 337.289 176.678C331.325 178.603 320.746 187.646 320.746 187.646C320.746 187.646 304.425 182.703 294.388 183.799C284.351 184.895 276.112 188.222 276.112 188.222C274.586 186.146 270.328 177.816 261.49 175.525C252.651 173.235 257.259 192.265 258.412 195.535C259.565 198.805 260.337 205.922 256.679 213.811C253.02 221.7 256.679 231.895 256.679 231.895C256.679 231.895 275.147 242.282 297.658 241.514C320.169 240.745 341.328 234.397 341.328 234.397V234.393Z" fill="#F7ECD8" stroke="#815739" stroke-width="2.26052" stroke-miterlimit="10" />
<path xmlns="http://www.w3.org/2000/svg" d="M283.612 222.081C283.612 222.081 267.646 221.504 261.682 227.853C255.718 234.201 252.063 239.012 252.255 249.399C252.447 259.786 267.638 269.518 280.727 263.252C293.815 256.987 294.192 249.015 294.388 233.817C294.388 233.817 291.694 252.669 301.312 258.057C310.931 263.445 323.051 266.907 334.595 260.174C346.138 253.442 349.985 242.859 337.096 230.354C324.208 217.85 304.775 222.081 300.928 223.045C297.081 224.01 283.612 222.085 283.612 222.085V222.081Z" fill="#DDC7B3" stroke="#815739" stroke-width="2.26052" stroke-miterlimit="10" />
<path xmlns="http://www.w3.org/2000/svg" d="M270.528 249.814C270.859 249.814 271.127 249.545 271.127 249.215C271.127 248.884 270.859 248.616 270.528 248.616C270.197 248.616 269.929 248.884 269.929 249.215C269.929 249.545 270.197 249.814 270.528 249.814Z" fill="#815739" stroke="#815739" stroke-width="1.50701" stroke-miterlimit="10" />
<path xmlns="http://www.w3.org/2000/svg" d="M315.241 241.638C315.571 241.638 315.84 241.37 315.84 241.039C315.84 240.708 315.571 240.44 315.241 240.44C314.91 240.44 314.642 240.708 314.642 241.039C314.642 241.37 314.91 241.638 315.241 241.638Z" fill="#815739" stroke="#815739" stroke-width="1.50701" stroke-miterlimit="10" />
<path xmlns="http://www.w3.org/2000/svg" d="M276.88 248.619C277.211 248.619 277.479 248.351 277.479 248.02C277.479 247.689 277.211 247.421 276.88 247.421C276.549 247.421 276.281 247.689 276.281 248.02C276.281 248.351 276.549 248.619 276.88 248.619Z" fill="#815739" stroke="#815739" stroke-width="1.50701" stroke-miterlimit="10" />
<path xmlns="http://www.w3.org/2000/svg" d="M273.61 242.15C273.941 242.15 274.209 241.882 274.209 241.551C274.209 241.221 273.941 240.952 273.61 240.952C273.279 240.952 273.011 241.221 273.011 241.551C273.011 241.882 273.279 242.15 273.61 242.15Z" fill="#815739" stroke="#815739" stroke-width="1.50701" stroke-miterlimit="10" />
<path xmlns="http://www.w3.org/2000/svg" d="M318.839 248.02C319.17 248.02 319.438 247.752 319.438 247.421C319.438 247.09 319.17 246.822 318.839 246.822C318.508 246.822 318.24 247.09 318.24 247.421C318.24 247.752 318.508 248.02 318.839 248.02Z" fill="#815739" stroke="#815739" stroke-width="1.50701" stroke-miterlimit="10" />
<path xmlns="http://www.w3.org/2000/svg" d="M312.856 247.425C313.187 247.425 313.455 247.157 313.455 246.826C313.455 246.495 313.187 246.227 312.856 246.227C312.525 246.227 312.257 246.495 312.257 246.826C312.257 247.157 312.525 247.425 312.856 247.425Z" fill="#815739" stroke="#815739" stroke-width="1.50701" stroke-miterlimit="10" />
<path xmlns="http://www.w3.org/2000/svg" d="M290.466 196.367C290.466 196.367 289.159 203.797 286.386 204.765" stroke="#815739" stroke-width="1.88377" stroke-linecap="round" stroke-linejoin="round" />
<path xmlns="http://www.w3.org/2000/svg" d="M296.467 196.556C296.467 196.556 299.647 204.584 301.538 205.349" stroke="#815739" stroke-width="1.88377" stroke-linecap="round" stroke-linejoin="round" />
<path xmlns="http://www.w3.org/2000/svg" d="M289.06 233.082C289.06 233.082 279.423 227.114 282.836 220.683C286.25 214.252 295.958 214.376 298.705 215.763C301.452 217.149 308.139 220.31 303.84 225.807C299.541 231.304 296.241 238.311 289.06 233.082Z" fill="#815739" stroke="#815739" stroke-width="1.50701" stroke-miterlimit="10" />
<path xmlns="http://www.w3.org/2000/svg" d="M281.303 214.994C281.303 214.994 293.397 205.406 305.242 214.994" stroke="#815739" stroke-width="1.88377" stroke-linecap="round" stroke-linejoin="round" />
<path xmlns="http://www.w3.org/2000/svg" d="M322.655 204.98C322.655 204.98 313.956 207.508 314.645 214.994C315.335 222.48 321.883 229.439 331.324 223.622C339.982 218.287 333.769 202.531 323.627 204.765L322.655 204.98Z" fill="white" stroke="#815739" stroke-width="2.26052" stroke-miterlimit="10" />
<path xmlns="http://www.w3.org/2000/svg" d="M321.849 212.639C320.937 213.615 320.037 213.144 319.909 212.398C319.739 211.411 320.101 209.791 321.22 209.354C322.799 208.736 323.315 211.072 321.849 212.639Z" fill="#815739" />
<path xmlns="http://www.w3.org/2000/svg" d="M262.752 206.11C262.752 206.11 255.846 208.423 256.935 216.953C257.888 224.409 263.46 229.443 272.902 223.622C281.559 218.287 276.812 203.612 263.422 205.794L262.752 206.11Z" fill="white" stroke="#815739" stroke-width="2.26052" stroke-miterlimit="10" />
<path xmlns="http://www.w3.org/2000/svg" d="M262.56 212.639C261.648 213.615 260.748 213.144 260.62 212.398C260.45 211.411 260.812 209.791 261.931 209.354C263.509 208.736 264.026 211.072 262.56 212.639Z" fill="#815739" />
</svg>