<svg fill="none" xmlns="http://www.w3.org/2000/svg" viewBox="550.0 205.9 60.4 110.0"><defs><clipPath xmlns="http://www.w3.org/2000/svg" id="clip0_801_4">
<rect width="63.6045" height="119.85" fill="white" transform="translate(531 207.048) rotate(-15.5475)" />
</clipPath>
</defs><g xmlns="http://www.w3.org/2000/svg" clip-path="url(#clip0_801_4)">
<path d="M566.992 249.707C566.992 249.707 565.275 261.954 566.521 271.546C568.013 283.212 574.247 293.15 582.197 292.38C590.148 291.61 596.361 285.575 598.586 281.176C600.876 276.661 598.726 266.269 594.676 260.049C589.943 252.772 581.781 244.306 581.781 244.306L566.979 249.73L566.992 249.707Z" fill="white" />
<path d="M566.785 248.4C564.389 248.755 561.604 246.237 560.161 244.553C556.48 240.218 555.676 233.407 556.589 227.931C556.712 227.254 557.58 224.42 557.53 224.24C557.459 223.986 556.203 222.972 555.863 222.521C554.386 220.574 553.058 216.501 554.808 214.455C556.323 212.689 558.273 212.692 560.221 213.67C562.169 214.648 562.798 216.421 563.341 218.511C564.757 217.786 566.398 217.173 567.978 216.968C569.689 216.745 571.295 217.195 572.98 217.155C572.927 213.253 573.643 210.013 578.239 209.865C582.217 209.733 581.618 215.706 580.449 218.156C580.043 219.009 579.354 219.473 579.093 220.286C580.694 222.121 582.001 224.505 582.655 226.856C583.244 228.972 584.277 235.7 583.761 237.695C583.628 238.199 583.046 239.608 582.79 240.089C582.17 241.294 581.04 242.135 580.74 243.368C580.526 243.72 580.151 243.98 579.572 244.141C576.7 246.635 572.38 247.779 568.664 248.501C567.821 248.833 567.192 248.813 566.777 248.441L566.785 248.4Z" fill="#EAC5A0" />
<path d="M579.621 291.597C580.527 291.559 580.984 291.802 580.993 292.326C580.883 294.032 581.614 295.816 581.855 297.523C582.406 301.325 582.995 309.677 578.626 311.555C575.686 312.821 572.794 309.222 572.304 306.552C571.743 303.415 572.948 302.281 573.974 299.735C574.735 297.847 575.1 295.797 575.861 293.909C576.015 293.555 576.853 291.451 576.964 291.362C577.605 290.793 578.922 291.324 579.598 291.584L579.621 291.597Z" fill="#EAC5A0" />
<path d="M595.264 285.764L598.625 289.72C602.125 293.403 606.709 295.733 606.354 301.6C606.255 303.206 603.463 303.885 602.208 303.649C602.067 303.63 599.963 302.442 599.745 302.289C596.583 300.031 593.568 292.276 591.959 288.593C591.804 288.246 591.7 288.081 591.821 287.676C591.796 287.586 591.771 287.496 591.751 287.423C591.76 287.245 594.493 285.725 594.84 285.57L595.264 285.764Z" fill="#EAC5A0" />
<path d="M599.506 273.768C599.506 273.768 598.368 273.949 597.964 274.178C597.268 274.547 595.751 276.099 594.906 276.704C589.251 280.753 582.322 283.304 575.365 283.934C573.729 284.077 571.964 283.828 570.457 284.364C570.39 284.051 568.608 280.377 568.95 280.418C569.804 280.824 570.786 280.784 571.725 280.796C581.32 280.893 591.724 275.914 598.505 269.331C598.964 269.788 599.634 273.596 599.511 273.786L599.506 273.768Z" fill="#77A3BA" />
<path d="M593.762 258.511L595.281 261.03C593.461 262.472 592.105 264.603 590.387 266.133C585.421 270.555 578.667 271.986 572.19 272.17C570.78 272.212 568.557 271.856 567.408 272C567.067 272.037 566.865 272.151 566.593 272.363L566.118 267.994C568.016 268.791 570.093 268.973 572.146 268.928C578.81 268.789 584.507 266.152 589.634 262.095C591.039 260.983 592.333 259.61 593.762 258.511Z" fill="#77A3BA" />
<path d="M566.408 251.526C567.493 250.522 567.53 253.669 566.698 253.9C567.256 254.505 566.894 256.145 566.246 256.618C566.775 257.328 566.685 259.594 565.956 260.128C565.642 262.359 564.222 264.332 562.787 266.037C561.352 267.742 559.721 269.306 557.347 268.408C556.671 268.148 555.766 267.347 555.738 266.615C555.711 265.96 556.194 263.701 556.431 263.012C557.899 258.765 561.208 256.577 564.201 253.679C564.951 252.944 565.387 251.849 566.408 251.526Z" fill="#EAC5A0" />
<path d="M591.809 287.699C587.146 288.451 582.471 289.226 577.718 289.515C577.146 289.557 575.92 289.353 575.602 289.402C575.326 289.46 575.207 289.804 575.117 289.83C574.936 289.88 572.253 287.45 572.446 287.163C579.949 286.887 587.448 285.405 593.869 281.378C595.845 280.146 597.535 278.584 599.394 277.21C599.367 279.985 597.461 284.061 595.26 285.745C594.858 286.052 592.17 287.599 591.799 287.663L591.809 287.699Z" fill="#77A3BA" />
<path d="M580.748 243.327C581.617 243.299 582.809 245.131 583.284 245.856C583.893 245.803 583.93 246.358 583.441 246.631C582.727 248.408 580.458 249.779 578.781 250.753C576.735 251.945 569.102 254.907 567.109 254.117C566.957 254.062 566.813 253.965 566.675 253.887C566.735 253.403 566.846 252.261 566.859 251.887C566.864 251.555 566.435 251.557 566.402 251.508C566.07 251.015 566.935 249.079 566.78 248.382C569.361 247.995 575.125 246.509 577.396 245.214C578.571 244.536 579.219 243.362 580.743 243.309L580.748 243.327Z" fill="#77A3BA" />
<path d="M598.059 266.747C596.497 267.298 595.355 268.863 594.048 269.909C586.834 275.638 577.999 278.973 568.704 277.642C568.42 277.604 568.164 277.734 567.891 277.732C567.444 276.687 567.201 275.605 567.008 274.489C569.548 275.283 572.432 275.143 575.085 274.873C580.881 274.274 584.786 272.973 589.674 269.878C592.345 268.2 594.865 266.193 596.691 263.581C597.094 263.488 598.037 266.246 598.036 266.734L598.059 266.747Z" fill="#77A3BA" />
<path d="M580.18 260.477C581.001 260.346 581.714 259.895 582.41 259.526C584.719 258.299 588.185 256.399 589.639 254.202C589.775 253.988 589.684 253.312 590.15 253.728C590.276 253.829 591.936 256.154 591.876 256.288C588.978 258.478 586.324 261.126 583.08 262.847C579.074 264.975 573.228 266.094 568.684 266.014C567.805 266.005 566.967 265.654 566.088 265.996L565.603 262.643C567.514 262.929 569.494 263.041 571.434 262.871C572.539 262.778 574.513 262.521 575.567 262.248C576.002 262.127 576.49 261.991 576.748 261.588L577.2 261.462C578.438 262.618 579.98 262.91 579.766 260.67L580.162 260.482L580.18 260.477Z" fill="#76A4BA" />
<path d="M587.474 250.478C586.867 250.608 584.993 249.337 585.281 248.691C584.991 249.259 583.354 247.298 583.294 247.081L583.447 246.649C583.355 246.46 583.389 246.022 583.289 245.874C583.827 245.354 584.424 245.539 585.05 245.618C589.082 246.172 596.358 249 598.325 252.779C598.877 253.853 599.438 255.451 598.177 256.308C596.575 257.416 594.747 255.957 593.461 255.048C591.423 253.608 589.652 251.723 587.474 250.478Z" fill="#EAC5A0" />
<path d="M587.474 250.478C587.568 250.607 588.135 251.522 588.108 251.568C586.543 251.965 585.342 253.39 584.004 254.327C582.766 255.198 581.432 256.076 580.035 256.659L579.588 256.452C579.139 254.278 577.761 255.772 577.226 257.07L576.83 257.395C575.185 256.528 573.621 255.949 574.655 258.546L574.435 259.016C571.63 259.719 568.824 260.07 565.956 260.128C566.108 259.131 566.13 257.741 566.246 256.618L567.012 256.288C573.677 256.85 579.746 253.31 584.509 248.925L585.305 248.704C585.814 249.205 586.937 249.809 587.492 250.473L587.474 250.478Z" fill="#77A3BA" />
<path d="M580.015 256.665C580.191 257.648 580.207 259.456 580.18 260.477C580.128 261.973 580.148 263.097 578.195 262.588C577.837 262.493 577.091 261.843 576.76 261.565C576.006 260.956 574.843 259.857 574.411 259.003C573.009 256.276 574.712 255.393 576.765 257.101C577.47 255.151 579.492 253.595 580.01 256.646L580.015 256.665Z" fill="#B0453E" />
<path d="M579.622 291.596L588.838 290.124C588.856 290.469 588.526 290.542 588.298 290.703C586.824 291.639 582.67 292.678 580.976 292.331C580.623 292.253 579.907 291.712 579.604 291.602L579.622 291.596Z" fill="#7EA8BD" />
<path d="M570.361 235.129C570.018 235.926 572.309 236.107 572.146 236.99C571.325 237.823 570.199 236.577 569.755 236.662C569.665 236.687 569.098 238.501 568.35 237.774C567.63 237.078 569.12 236.059 568.969 235.516C568.934 235.39 568.106 234.938 567.863 234.694C566.052 232.879 565.454 231.778 568.405 230.899C572.183 229.77 573.776 231.782 571.056 234.682C570.861 234.892 570.374 235.106 570.366 235.147L570.361 235.129Z" fill="#020202" />
<path d="M573.697 223.931C575.191 223.068 575.921 226.392 574.822 226.717C573.634 227.067 572.889 224.39 573.697 223.931Z" fill="#090808" />
<path d="M563.881 228.299C563.536 228.668 562.642 228.468 562.409 227.91C561.697 226.12 563.528 225.279 563.936 226.394C564.019 226.624 563.975 228.215 563.881 228.299Z" fill="#080707" />
<path d="M585.28 248.691C584.036 250.031 582.576 251.158 581.078 252.218C576.556 255.367 571.847 257.281 566.227 256.623C566.339 255.695 566.583 254.751 566.679 253.905C569.786 253.723 573.071 252.926 575.968 251.711C578.815 250.529 581.285 248.829 583.441 246.631C583.494 246.753 585.065 248.478 585.28 248.691Z" fill="white" />
</g>
</svg>